0
SECTION
2
HEADER
9
$INSUNITS
70
1
9
$ACADVER
1
AC1014
9
$HANDSEED
5
FFFF
0
ENDSEC
0
SECTION
2
TABLES
0
TABLE
2
VPORT
5
8
100
AcDbSymbolTable
0
ENDTAB
0
TABLE
2
LTYPE
5
5
100
AcDbSymbolTable
0
LTYPE
5
14
100
AcDbSymbolTableRecord
100
AcDbLinetypeTableRecord
2
BYBLOCK
70
0
0
LTYPE
5
15
100
AcDbSymbolTableRecord
100
AcDbLinetypeTableRecord
2
BYLAYER
70
0
0
LTYPE
5
16
100
AcDbSymbolTableRecord
100
AcDbLinetypeTableRecord
2
DASHED
70
0
3
Dashed __ __ __ __ __ __ __ __ __ __ __ __ __ _
72
65
73
2
40
0.75
49
0.5
74
0
49
-0.25
74
0
0
ENDTAB
0
TABLE
2
LAYER
5
2
100
AcDbSymbolTable
70
2
0
LAYER
5
50
100
AcDbSymbolTableRecord
100
AcDbLayerTableRecord
2
0
70
0
62
7
6
CONTINUOUS
0
ENDTAB
0
TABLE
2
STYLE
5
3
100
AcDbSymbolTable
70
1
0
STYLE
5
11
100
AcDbSymbolTableRecord
100
AcDbTextStyleTableRecord
2
STANDARD
70
0
0
ENDTAB
0
TABLE
2
VIEW
5
6
100
AcDbSymbolTable
70
0
0
ENDTAB
0
TABLE
2
UCS
5
7
100
AcDbSymbolTable
70
0
0
ENDTAB
0
TABLE
2
APPID
5
9
100
AcDbSymbolTable
70
2
0
APPID
5
12
100
AcDbSymbolTableRecord
100
AcDbRegAppTableRecord
2
ACAD
70
0
0
ENDTAB
0
TABLE
2
DIMSTYLE
5
A
100
AcDbSymbolTable
70
1
0
ENDTAB
0
TABLE
2
BLOCK_RECORD
5
1
100
AcDbSymbolTable
70
1
0
BLOCK_RECORD
5
1F
100
AcDbSymbolTableRecord
100
AcDbBlockTableRecord
2
*MODEL_SPACE
0
BLOCK_RECORD
5
1B
100
AcDbSymbolTableRecord
100
AcDbBlockTableRecord
2
*PAPER_SPACE
0
ENDTAB
0
ENDSEC
0
SECTION
2
BLOCKS
0
BLOCK
5
20
100
AcDbEntity
100
AcDbBlockBegin
2
*MODEL_SPACE
0
ENDBLK
5
21
100
AcDbEntity
100
AcDbBlockEnd
0
BLOCK
5
1C
100
AcDbEntity
100
AcDbBlockBegin
2
*PAPER_SPACE
0
ENDBLK
5
1D
100
AcDbEntity
100
AcDbBlockEnd
0
ENDSEC
0
SECTION
2
ENTITIES
0
LWPOLYLINE
5
100
100
AcDbEntity
8
0
100
AcDbPolyline
90
4
70
1
43
0.0
10
-3.9999999999999996
20
4.9999999999999991
10
-3.9999999999999996
20
-4.9999999999999991
10
3.9999999999999996
20
-4.9999999999999991
10
3.9999999999999991
20
4.9999999999999991
0
LWPOLYLINE
5
101
100
AcDbEntity
8
0
100
AcDbPolyline
90
6
70
1
43
0.0
10
-2.0497314512991234
20
-3.5626524762227865
42
0.6288796563445278
10
-1.6592970465776089
20
-4.3749999999999991
10
1.6592970465776089
20
-4.3749999999999982
42
0.62887965634452669
10
2.0497314512991243
20
-3.5626524762227874
10
0.39043440472151536
20
-1.4885311680007767
42
0.48062484748656986
10
-0.39043440472151564
20
-1.4885311680007771
0
LWPOLYLINE
5
102
100
AcDbEntity
8
0
100
AcDbPolyline
90
6
70
1
43
0.0
10
3.5624999999999996
20
2.6409786733810798
42
0.70895822537387199
10
2.8679611643172187
20
2.884609741927306
10
0.75517822561235415
20
0.24363106854622527
42
0.35078105935821191
10
0.75517822561235437
20
-0.24363106854622543
10
2.8679611643172183
20
-2.8846097419273051
42
0.70895822537387376
10
3.5625000000000004
20
-2.6409786733810785
0
LWPOLYLINE
5
103
100
AcDbEntity
8
0
100
AcDbPolyline
90
6
70
1
43
0.0
10
-3.5625000000000004
20
-2.6409786733810789
10
-3.5625000000000004
20
2.6409786733810798
42
-0.70895822537387176
10
-2.8679611643172187
20
2.884609741927306
10
-0.75517822561235437
20
0.24363106854622552
42
-0.35078105935821208
10
-0.75517822561235437
20
-0.24363106854622538
10
-2.8679611643172178
20
-2.8846097419273051
42
-0.70895822537387332
0
LWPOLYLINE
5
104
100
AcDbEntity
8
0
100
AcDbPolyline
90
6
70
1
43
0.0
10
-1.6592970465776089
20
4.375
10
1.6592970465776087
20
4.3749999999999982
42
-0.62887965634452703
10
2.0497314512991247
20
3.5626524762227874
10
0.3904344047215153
20
1.4885311680007771
42
-0.48062484748656986
10
-0.39043440472151592
20
1.4885311680007769
10
-2.0497314512991243
20
3.5626524762227865
42
-0.62887965634452747
0
CIRCLE
5
105
100
AcDbEntity
8
0
100
AcDbCircle
10
3.7499999999999991
20
4.75
30
0
40
0.062992125984252204
210
0
220
0
230
1
0
CIRCLE
5
106
100
AcDbEntity
8
0
100
AcDbCircle
10
2.3499999999999996
20
4.75
30
0
40
0.06299212598425194
210
0
220
0
230
1
0
CIRCLE
5
107
100
AcDbEntity
8
0
100
AcDbCircle
10
3.7500000000000031
20
3.75
30
0
40
0.062992125984252204
210
0
220
0
230
1
0
CIRCLE
5
108
100
AcDbEntity
8
0
100
AcDbCircle
10
2.3500000000000032
20
-3.75
30
0
40
0.06299212598425194
210
0
220
-0
230
1
0
CIRCLE
5
109
100
AcDbEntity
8
0
100
AcDbCircle
10
3.7499999999999991
20
-4.75
30
0
40
0.062992125984252204
210
0
220
-0
230
1
0
CIRCLE
5
110
100
AcDbEntity
8
0
100
AcDbCircle
10
-2.3500000000000045
20
-3.75
30
0
40
0.06299212598425194
210
0
220
0
230
1
0
CIRCLE
5
111
100
AcDbEntity
8
0
100
AcDbCircle
10
-3.750000000000004
20
-3.75
30
0
40
0.062992125984252204
210
0
220
0
230
1
0
CIRCLE
5
112
100
AcDbEntity
8
0
100
AcDbCircle
10
-2.3500000000000005
20
-4.75
30
0
40
0.06299212598425194
210
0
220
0
230
1
0
CIRCLE
5
113
100
AcDbEntity
8
0
100
AcDbCircle
10
2.3500000000000032
20
3.75
30
0
40
0.06299212598425194
210
0
220
0
230
1
0
CIRCLE
5
114
100
AcDbEntity
8
0
100
AcDbCircle
10
-2.3500000000000005
20
4.75
30
0
40
0.06299212598425194
210
0
220
-0
230
1
0
CIRCLE
5
115
100
AcDbEntity
8
0
100
AcDbCircle
10
-2.3500000000000045
20
3.75
30
0
40
0.06299212598425194
210
0
220
-0
230
1
0
CIRCLE
5
116
100
AcDbEntity
8
0
100
AcDbCircle
10
-3.7500000000000004
20
4.75
30
0
40
0.062992125984252204
210
0
220
-0
230
1
0
CIRCLE
5
117
100
AcDbEntity
8
0
100
AcDbCircle
10
-3.750000000000004
20
3.75
30
0
40
0.062992125984252204
210
0
220
-0
230
1
0
CIRCLE
5
118
100
AcDbEntity
8
0
100
AcDbCircle
10
3.7500000000000031
20
-3.75
30
0
40
0.062992125984252204
210
0
220
-0
230
1
0
CIRCLE
5
119
100
AcDbEntity
8
0
100
AcDbCircle
10
2.3499999999999996
20
-4.75
30
0
40
0.06299212598425194
210
0
220
-0
230
1
0
CIRCLE
5
120
100
AcDbEntity
8
0
100
AcDbCircle
10
-3.7500000000000004
20
-4.75
30
0
40
0.062992125984252204
210
0
220
0
230
1
0
ENDSEC
0
SECTION
2
OBJECTS
0
DICTIONARY
5
C
100
AcDbDictionary
3
ACAD_GROUP
350
D
3
ACAD_MLINESTYLE
350
17
0
DICTIONARY
5
D
100
AcDbDictionary
0
DICTIONARY
5
1A
330
C
100
AcDbDictionary
0
DICTIONARY
5
17
100
AcDbDictionary
0
ENDSEC
0
EOF
